<?xml version="1.0" encoding="utf-8"?>
<!-- Generator: Adobe Illustrator 18.0.0, SVG Export Plug-In . SVG Version: 6.00 Build 0)  -->
<!DOCTYPE svg PUBLIC "-//W3C//DTD SVG 1.1//EN" "http://www.w3.org/Graphics/SVG/1.1/DTD/svg11.dtd">
<svg version="1.1" id="Layer_1" xmlns="http://www.w3.org/2000/svg" xmlns:xlink="http://www.w3.org/1999/xlink" x="0px" y="0px"
	 width="64px" viewBox="0 0 200 200" enable-background="new 0 0 200 200" xml:space="preserve">
<g>
	<path fill="#94C950" d="M151.3,32H48.7C39.5,32,32,39.5,32,48.7v44.7v57.9c0,9.2,7.5,16.7,16.7,16.7h102.7
		c9.2,0,16.7-7.5,16.7-16.7v-41.6V48.7C168,39.5,160.5,32,151.3,32z"/>
	<g>
		<defs>
			<path id="SVGID_2_" d="M151.3,32H48.7C39.5,32,32,39.5,32,48.7v44.7v57.9c0,9.2,7.5,16.7,16.7,16.7h102.7
				c9.2,0,16.7-7.5,16.7-16.7v-41.6V48.7C168,39.5,160.5,32,151.3,32z"/>
		</defs>
		<clipPath id="SVGID_1_">
			<use xlink:href="#SVGID_2_"  overflow="visible"/>
		</clipPath>
		<polygon opacity="0.3" clip-path="url(#SVGID_1_)" points="62.6,138.1 92.5,168 168,168 168,92.6 138.7,63.4 61.2,64.5 57.1,68.4 
			63.8,75.1 		"/>
	</g>
	<g>
		<path fill="#FFFFFF" d="M77.5,74.6c-1.1,1.2-2.2,2.1-3,3.2c-8.5,10.4-10.8,22-6,34.5c4.9,12.5,14.4,19.6,27.8,21.4
			c6.2,0.8,12.1-0.3,17.8-2.8c0.5-0.2,1.2-0.4,1.7-0.2c8.6,2.6,17.3,2.5,26,0.5c0.5-0.1,0.9-0.2,1.7-0.3c-0.3,0.5-0.5,0.8-0.7,1.1
			c-9.2,11.9-21.1,19.1-36.1,20.9C81,156,57.5,141.1,49.3,116.6c-2.4-7-3.3-14.3-2.4-21.7c0.6-4.8,3.1-9,6.3-12.7
			c6.1-6.9,13.9-9.3,23-8C76.6,74.3,76.9,74.4,77.5,74.6z"/>
		<path fill="#FFFFFF" d="M124.3,124.2c1.9-2.9,4.1-5.5,5.7-8.5c10.9-20.9-2.3-46.1-25.7-49.3c-5.8-0.8-11.4,0-16.9,2.1
			c-0.5,0.2-1.4,0.2-1.8,0c-9-4.9-18.1-5.1-27.3-0.5c-0.4,0.2-0.7,0.4-1.1,0.5c0,0-0.1,0-0.2-0.1c3.2-4.4,7-8.2,11.4-11.4
			c7.9-5.8,16.7-9.1,26.3-10.1c27.2-2.7,52.1,15.9,57.4,42.6c1.1,5.5,1.6,11,0.6,16.5c-1.6,8.8-6.6,14.7-15.3,17.2
			C133.2,124.5,128.7,124.7,124.3,124.2z"/>
		<path fill="#FFFFFF" d="M91.4,73c2.5-0.4,5-1,7.4-1.1c14.5-0.5,26.8,9.5,29,23.8c1.6,10.6-2,19.5-10.3,26.4
			c-0.4,0.4-1.3,0.5-1.9,0.3c-2.3-0.6-3.6-2.4-4.9-4.2c-3-4.4-5.1-9.4-6.8-14.4c-1.6-4.8-3-9.7-4.5-14.6c-1.7-5.4-3.9-10.5-7.5-15
			c-0.1-0.2-0.2-0.3-0.3-0.5C91.5,73.6,91.5,73.5,91.4,73z"/>
		<path fill="#FFFFFF" d="M83.1,122.8c-1.6-1.6-3.2-3-4.7-4.6c-10.3-11.9-8.4-30.8,4.2-40.4c0.9-0.7,1.5-0.7,2.4-0.1
			c2.5,1.7,4.6,3.9,5.9,6.7c1.7,3.5,3.3,7,4.8,10.6c0.2,0.5,0.1,1.4-0.2,2c-2.8,5.6-5.7,11.1-8.4,16.7
			C85.6,116.5,84.5,119.5,83.1,122.8z"/>
		<path fill="#FFFFFF" d="M97.7,101.3c3,8.9,4.4,18.3,11.1,25.7c-2.5,0.4-4.6,0.9-6.8,1.2c-3.6,0.3-7.2-0.2-10.6-1.2
			c-0.9-0.3-1.2-0.7-1.2-1.6c-0.2-3.4,0.4-6.7,1.6-9.9c1.7-4.5,3.6-8.9,5.5-13.4C97.4,101.9,97.5,101.7,97.7,101.3z"/>
	</g>
</g>
</svg>
