<svg xmlns:dc="http://purl.org/dc/elements/1.1/" xmlns:sodipodi="http://sodipodi.sourceforge.net/DTD/sodipodi-0.dtd" xmlns:inkscape="http://www.inkscape.org/namespaces/inkscape" xmlns:rdf="http://www.w3.org/1999/02/22-rdf-syntax-ns#" xmlns:svg="http://www.w3.org/2000/svg" xmlns:cc="http://creativecommons.org/ns#" xmlns:v="http://schemas.microsoft.com/visio/2003/SVGExtensions/" xmlns="http://www.w3.org/2000/svg" xmlns:xlink="http://www.w3.org/1999/xlink" version="1.1"
     x="0px" y="0px" width="64px" viewBox="0 0 100 100" enable-background="new 0 0 100 100" xml:space="preserve">
    <v:documentProperties v:viewMarkup="false" v:langID="1033"><v:userDefs><v:ud v:nameU="msvNoAutoConnect" v:val="VT0(0):26"></v:ud></v:userDefs></v:documentProperties>
    <path fill="orange" d="M81.613,33.912H63.172v-8.218c0-1.931-1.58-3.512-3.512-3.512H40.34c-1.931,0-3.512,1.581-3.512,3.512v8.218  H18.387c-1.931,0-3.512,1.581-3.512,3.512v36.883c0,1.932,1.581,3.512,3.512,3.512h63.226c1.93,0,3.512-1.58,3.512-3.512V37.424  C85.125,35.492,83.543,33.912,81.613,33.912z M41.052,30.572c0-4.481,1.107-4.598,5.143-4.598h7.611  c3.135,0,5.143-0.291,5.143,4.598v3.34H41.052V30.572z"></path>
</svg>