<svg xmlns="http://www.w3.org/2000/svg" xmlns:xlink="http://www.w3.org/1999/xlink" version="1.1" x="0px" y="0px" viewBox="0 0 48 48"
  width="64px"
     enable-background="new 0 0 48 48" xml:space="preserve">
    <g><path fill="green" d="M47.5,23.5v-4.8c0-0.5-0.6-0.8-1-0.5c-4.9,3.9-13.7,5.9-22.5,5.9c-8.7,0-17.5-2-22.5-5.9   c-0.4-0.3-1,0-1,0.5v4.8h0c0,0.1,0,0.2,0,0.4C0.5,29.5,11,34.1,24,34.1c13,0,23.5-4.6,23.5-10.3C47.5,23.7,47.5,23.6,47.5,23.5   L47.5,23.5z"></path>
        <path fill="green" d="M47.5,36.9v-4.8c0-0.5-0.6-0.8-1-0.5c-4.9,3.9-13.7,5.9-22.5,5.9c-8.7,0-17.5-2-22.5-5.9   c-0.4-0.3-1,0-1,0.5v4.8h0c0,0.1,0,0.2,0,0.4C0.5,42.9,11,47.5,24,47.5c13,0,23.5-4.6,23.5-10.3C47.5,37.1,47.5,37,47.5,36.9   L47.5,36.9z"></path>
        <ellipse fill="gray" cx="24" cy="10.8" rx="23.5" ry="10.3"></ellipse>
    </g></svg>